<?xml version="1.0" encoding="utf-8"?>
<!-- Generator: Adobe Illustrator 26.0.0, SVG Export Plug-In . SVG Version: 6.00 Build 0)  -->
<svg version="1.1" id="Camada_1" xmlns="http://www.w3.org/2000/svg" xmlns:xlink="http://www.w3.org/1999/xlink" x="0px" y="0px"
	 viewBox="0 0 595.3 841.9" style="enable-background:new 0 0 595.3 841.9;" xml:space="preserve">
<style type="text/css">
	.st0{fill:#A6C5FA;}
	.st1{fill:#C68FF7;}
	.st2{fill:#C396F7;}
	.st3{fill:#AABFFA;}
	.st4{fill:#A3CCFA;}
	.st5{fill:#CA89F7;}
	.st6{fill:#C690F7;}
</style>
<g>
	<path class="st0" d="M106.2,629.9c-2.6-0.8-5.2-1.5-7.9-2.3c0.4-5,1-10,1.1-14.9c0.2-10.8,0.1-21.6,0.1-32.4c6,1.6,11.9,4,18,4.5
		c8.9,0.8,17.9,0.3,26.8,0.3c0,14.9,0,29.8,0,44.8C131.7,629.9,118.9,629.9,106.2,629.9z"/>
	<path class="st1" d="M458.6,585.1c6.3,0,12.7-0.4,19-0.1c8.3,0.4,15.3-2.2,21.1-8.1c0.5,1.9,1.3,3.8,1.3,5.7
		c0.1,14.7,0.1,29.4,0.1,44c-3.4,1.1-6.8,2.2-10.1,3.2c-10.5,0-21,0-31.4,0C458.6,615,458.6,600,458.6,585.1z"/>
	<path class="st2" d="M458.6,585.1c0,14.9,0,29.8,0,44.8c-9.7,0-19.5,0-29.2,0c-6.7-3.3-13.3-7.1-16.4-14.2
		c-5.9-13.6,5.1-30.1,20.4-30.6C441.8,584.8,450.2,585.1,458.6,585.1z"/>
	<path class="st3" d="M144.4,629.9c0-14.9,0-29.8,0-44.8c5,0,10.1-0.1,15.1-0.1c11.3,0,20.4,7.2,22.7,17.8
		c2.2,10.1-3.2,20.5-13.2,25.3c-1.1,0.5-2.2,1.2-3.4,1.8C158.6,629.9,151.5,629.9,144.4,629.9z"/>
	<path class="st4" d="M99.6,580.2c0,10.8,0.1,21.6-0.1,32.4c-0.1,5-0.7,10-1.1,14.9c-25.2-4-47.7-26.5-51.4-53.3
		c-1.8-13.2-1-26.8-1.3-40.2c-0.1-5.4,0-10.8,0-16.3c0-9.3,4.3-16.2,12.4-20.4c7.9-4.1,15.7-3.1,23.3,1.9c7.1,4.8,10.6,11,10.4,19.7
		c-0.3,13.1,0.2,26.2-0.2,39.2C91.3,566.9,93.7,574.1,99.6,580.2z"/>
	<path class="st5" d="M496.7,129.3c14.1,3.1,26,10.3,35.7,20.6c10.9,11.6,16.2,25.9,16.9,41.6c0.6,15.9,0.2,31.8,0.1,47.7
		c-0.1,12.9-9.9,22.5-22.9,22.5c-13.1,0-23-9.5-23.1-22.3c-0.1-13.7-0.2-27.3,0.1-41c0.2-7.9-1.8-14.7-6.9-20.7
		C496.7,161.6,496.7,145.4,496.7,129.3z"/>
	<path class="st4" d="M98.6,177.6c-5.2,5.9-7.2,12.7-7,20.6c0.3,13.3-0.4,26.6,0.2,39.8c0.6,14.8-13.7,23.8-23.8,23.7
		c-12.9-0.1-22.3-10-22.3-23.7c0-15,0-29.9,0-44.9c0-28.2,20.6-55.2,45.5-62.1c1.6-0.4,3.3-0.7,4.9-1.1c0,13.3-0.1,26.7,0.2,40
		C96.3,172.6,97.8,175.1,98.6,177.6z"/>
	<path class="st5" d="M500.1,626.7c0-14.7,0-29.4-0.1-44c0-1.9-0.9-3.8-1.3-5.7c3.9-6.2,5-13,4.9-20.3c-0.3-12.9-0.1-25.8-0.1-38.7
		c0.1-13.3,9.8-22.9,23.1-22.8c13.2,0,22.9,9.6,22.9,23c0.1,14.8,0.3,29.5,0,44.3c-0.6,29.8-17,52.9-45.6,63
		C502.6,625.9,501.4,626.3,500.1,626.7z"/>
	<path class="st6" d="M496.7,129.3c0,16.2-0.1,32.3-0.1,48.5c-6-4.7-12.8-6.2-20.3-5.9c-7.8,0.3-15.6,0-23.4-0.1
		c0-14.9,0-29.7,0-44.6c13.4,0.3,26.7,0.6,40.1,1C494.3,128.2,495.5,128.9,496.7,129.3z"/>
	<path class="st0" d="M97.5,177.6c-0.9-2.5-2.4-5-2.5-7.6c-0.3-13.3-0.2-26.7-0.2-40c6.3-1,12.6-2.6,19-2.9c8.4-0.5,16.9,0,25.4,0
		c0,14.9,0,29.8,0,44.6c-8.5,0.1-17-0.6-25.4,0.4C108.3,172.8,103,175.7,97.5,177.6z"/>
	<path class="st3" d="M137.7,171.8c0-14.9,0-29.8,0-44.6c7.8,0,15.6-0.2,23.5-0.1c12,0.2,21.5,10.4,21.4,22.7
		c-0.1,11.9-9.6,21.9-21.4,22.1C153.3,172,145.5,171.8,137.7,171.8z"/>
	<path class="st2" d="M453,127.2c0,14.9,0,29.7,0,44.6c-6.5,0-13.1,0.3-19.6,0.1c-8.1-0.2-18-7.7-20.7-15
		c-5.9-15.9,8.7-29.2,20.7-29.8C439.9,126.8,446.4,127.1,453,127.2z"/>
</g>
</svg>
